<?xml version="1.0" standalone="no"?>
<!DOCTYPE svg PUBLIC "-//W3C//DTD SVG 20010904//EN"
 "http://www.w3.org/TR/2001/REC-SVG-20010904/DTD/svg10.dtd">
<svg version="1.0" xmlns="http://www.w3.org/2000/svg"
 width="500.000000pt" height="500.000000pt" viewBox="0 0 500.000000 500.000000"
 preserveAspectRatio="xMidYMid meet">
<metadata>
Created by potrace 1.16, written by Peter Selinger 2001-2019
</metadata>
<g transform="translate(0.000000,500.000000) scale(0.100000,-0.100000)"
fill="#000000" stroke="none">
<path d="M2486 1534 c-4 -37 -6 -68 -4 -69 2 -2 12 -5 23 -7 16 -2 21 4 25 32
l5 35 22 -37 c14 -24 30 -38 43 -38 18 0 20 6 20 75 0 68 -2 75 -19 75 -16 0
-20 -8 -23 -37 l-3 -38 -22 38 c-13 22 -30 37 -41 37 -16 0 -20 -10 -26 -66z"/>
<path d="M2103 1583 c-7 -2 -13 -19 -13 -36 l-1 -32 -27 33 c-38 45 -62 43
-62 -5 0 -74 11 -113 31 -113 15 0 19 8 19 36 l0 36 26 -31 c14 -17 34 -31 45
-31 15 0 19 7 19 38 0 48 -11 112 -19 111 -3 0 -12 -3 -18 -6z"/>
<path d="M2806 1559 c-3 -17 -6 -51 -6 -75 0 -37 3 -44 20 -44 16 0 20 7 21
33 l1 32 10 -32 c13 -41 42 -43 63 -5 l15 27 -2 -30 c-3 -24 1 -31 20 -33 20
-3 22 1 22 41 0 24 3 59 6 76 6 29 5 31 -22 31 -24 0 -32 -7 -48 -43 l-19 -42
-14 48 c-12 38 -18 47 -37 47 -18 0 -25 -7 -30 -31z"/>
<path d="M3282 1463 c-13 -77 -10 -83 54 -83 48 0 75 23 76 68 1 39 -8 51 -48
68 -62 26 -70 21 -82 -53z"/>
</g>
</svg>
